<?xml version="1.0" encoding="UTF-8"?>
<svg width="1033px" height="568px" viewBox="0 0 1033 568" version="1.1" xmlns="http://www.w3.org/2000/svg" xmlns:xlink="http://www.w3.org/1999/xlink">
    <!-- Generator: Sketch 51.2 (57519) - http://www.bohemiancoding.com/sketch -->
    <title>Path 2 Copy</title>
    <desc>Created with Sketch.</desc>
    <defs></defs>
    <g id="Page-1" stroke="none" stroke-width="1" fill="none" fill-rule="evenodd" opacity="0.150928442">
        <path d="M623.313197,-16.4157709 C541.36948,-42.1844347 493.267021,-13.8786172 450.567211,3.22861169 C305.734019,61.2545039 250.09061,45.391562 173.887033,130.272378 C104.672369,207.36846 46.1480597,211.628545 57.95008,292.544432 C68.9082339,367.674681 47.3158054,391.982357 39.1757562,433.457299 C28.2242742,489.256971 -31.1608676,498.116617 26.1384878,542.123469 C86.9991118,588.865435 109.673388,577.949098 187.820955,589.041041 C260.972178,599.423822 358.593446,600.213532 391.834361,576.295205 C433.822682,546.082729 480.964949,527.572558 531.381117,512.947986 C591.154411,495.609127 674.069055,501.858607 725.573181,496.168807 C766.830293,491.611023 854.584762,461.150948 886.279841,448.794937 C894.824698,445.463809 939.87619,426.469787 949.187402,411.010447 C961.433021,390.679132 970.63386,368.835883 979.220502,346.964841 C988.912929,322.277253 984.72468,261.766396 984.311679,249.208666 C982.565493,196.114046 975.718336,137.832289 934.166003,96.5664909 C877.887811,40.6763786 852.075372,40.7545854 778.560218,33.1476424 C741.900222,29.3542679 730.871401,23.5633404 696.723174,8.37283595 L623.313197,-16.4157709 Z" id="Path-2-Copy" fill="#9DD7B2" transform="translate(493.563399, 284.574334) scale(-1, -1) rotate(19.000000) translate(-493.563399, -284.574334) "></path>
    </g>
</svg>