<?xml version="1.0" encoding="UTF-8"?>
<svg width="651px" height="390px" viewBox="0 0 651 390" version="1.1" xmlns="http://www.w3.org/2000/svg" xmlns:xlink="http://www.w3.org/1999/xlink">
    <!-- Generator: Sketch 51.2 (57519) - http://www.bohemiancoding.com/sketch -->
    <title>Path 2 Copy 6</title>
    <desc>Created with Sketch.</desc>
    <defs>
        <path d="M416.498726,50.2658702 C381.16375,36.9064441 327.182585,93.0594073 301.34635,86.6393462 C200.682807,61.6254042 179.329628,87.60927 130.905085,138.893448 C86.9217355,185.474164 49.7317097,188.048066 57.2314554,236.936671 C64.1949554,282.32965 50.4737687,297.016116 45.3010697,322.074879 C38.3418094,355.788508 0.604756655,361.141421 37.0163696,387.72994 C75.6910366,415.970989 90.0996974,409.375443 139.759574,416.077088 C186.244461,422.350266 248.279152,422.827401 269.40252,408.376176 C296.084539,390.122087 326.041699,378.938419 358.079303,370.102392 C396.063012,359.626419 448.75219,363.402295 481.481149,359.964573 C507.698512,357.210803 563.463219,338.807117 583.604265,331.341733 C589.034205,329.329097 617.662755,317.853091 623.579684,308.512705 C631.36132,296.228719 637.208112,283.031237 642.664604,269.816963 C648.823782,254.900958 646.162305,218.340877 645.899859,210.753616 C644.790222,178.674354 640.439108,143.461074 614.034143,118.528673 C578.271441,84.7604012 595.484627,52.0101725 552.583682,39.8735953 C508.64663,27.4439061 451.833701,63.6252964 416.498726,50.2658702 Z" id="path-1"></path>
    </defs>
    <g id="Page-1" stroke="none" stroke-width="1" fill="none" fill-rule="evenodd">
        <g id="Path-2-Copy-6" transform="translate(307.263260, 199.528090) rotate(18.000000) translate(-307.263260, -199.528090) translate(-26.736740, -28.971910)">
            <mask id="mask-2" fill="white">
                <use xlink:href="#path-1"></use>
            </mask>
            <use id="Mask" fill="#FAD183" opacity="0.162137681" transform="translate(334.047546, 228.735457) scale(-1, -1) rotate(-353.000000) translate(-334.047546, -228.735457) " xlink:href="#path-1"></use>
        </g>
    </g>
</svg>