<?xml version="1.0" encoding="UTF-8"?>
<svg width="639px" height="352px" viewBox="0 0 639 352" version="1.1" xmlns="http://www.w3.org/2000/svg" xmlns:xlink="http://www.w3.org/1999/xlink">
    <!-- Generator: Sketch 51.2 (57519) - http://www.bohemiancoding.com/sketch -->
    <title>Path 2 Copy 4</title>
    <desc>Created with Sketch.</desc>
    <defs>
        <path d="M407.430516,49.2099099 C372.921498,35.7373923 320.202147,92.3657066 294.969835,85.8912979 C196.65931,60.6656056 175.805264,86.8694323 128.512648,138.587746 C85.5574132,185.562781 49.2367071,188.158472 56.5611457,237.460934 C63.3618733,283.238177 49.9614204,298.048967 44.9096336,323.31986 C38.1130466,357.318885 1.25810036,362.717112 36.8185891,389.530711 C74.5892327,418.010828 88.66109,411.359449 137.160164,418.117826 C182.558462,424.444108 243.143088,424.925282 263.772695,410.351724 C289.83102,391.943108 319.087929,380.664767 350.376651,371.753941 C387.472488,361.189285 438.930053,364.997125 470.89397,361.530302 C496.4985,358.753221 550.959703,340.193741 570.62995,332.665161 C575.932965,330.635488 603.89232,319.062334 609.670941,309.642879 C617.270681,297.254906 622.980804,283.945703 628.30975,270.619566 C634.324956,255.577293 631.725692,218.70772 631.46938,211.056231 C630.385681,178.705409 626.136275,143.194038 600.348528,118.050577 C565.421782,83.9964471 582.232608,50.9689782 540.334476,38.7296613 C497.424456,26.1947512 441.939533,62.6824274 407.430516,49.2099099 Z" id="path-1"></path>
    </defs>
    <g id="Page-1" stroke="none" stroke-width="1" fill="none" fill-rule="evenodd">
        <g id="Path-2-Copy-4" transform="translate(333.884392, 179.796333) scale(-1, -1) rotate(10.000000) translate(-333.884392, -179.796333) translate(6.884392, -49.703667)">
            <mask id="mask-2" fill="white">
                <use xlink:href="#path-1"></use>
            </mask>
            <use id="Mask" fill="#B3CEEC" opacity="0.348901721" transform="translate(326.906639, 229.190294) scale(-1, -1) rotate(-353.000000) translate(-326.906639, -229.190294) " xlink:href="#path-1"></use>
        </g>
    </g>
</svg>