<?xml version="1.0" encoding="UTF-8"?>
<svg width="606px" height="395px" viewBox="0 0 606 395" version="1.1" xmlns="http://www.w3.org/2000/svg" xmlns:xlink="http://www.w3.org/1999/xlink">
    <!-- Generator: Sketch 51.2 (57519) - http://www.bohemiancoding.com/sketch -->
    <title>Path 2 Copy 3</title>
    <desc>Created with Sketch.</desc>
    <defs>
        <path d="M380.449331,47.3450188 C348.608913,32.6074763 299.966376,94.5530024 276.685292,87.4706681 C185.977169,59.8763665 166.735777,88.5406461 123.100322,145.115138 C83.466837,196.500974 49.9548293,199.340393 56.7128654,253.272192 C62.9876893,303.347768 50.6235002,319.549243 45.9623706,347.192989 C39.6913671,384.38441 5.68643228,390.289513 38.4970106,419.62082 C73.3468314,450.775127 86.3305049,443.499205 131.079121,450.892171 C172.966746,457.81247 228.866332,458.338824 247.900642,442.396857 C271.943863,422.259734 298.938321,409.922393 327.807471,400.17487 C362.034668,388.618228 409.512993,392.783612 439.005125,388.991265 C462.629643,385.953425 512.879334,365.651272 531.028471,357.415783 C535.921401,355.19553 561.718646,342.535695 567.050403,332.231785 C574.062451,318.680621 579.331007,304.121728 584.247863,289.544311 C589.79791,273.089618 587.399649,232.758114 587.163157,224.388176 C586.163261,188.999717 582.242464,150.153946 558.448897,122.649597 C526.223053,85.397897 541.733889,49.2692577 503.075761,35.8807094 C463.483995,22.1688126 412.289749,62.0825613 380.449331,47.3450188 Z" id="path-1"></path>
    </defs>
    <g id="Page-1" stroke="none" stroke-width="1" fill="none" fill-rule="evenodd">
        <g id="Path-2-Copy-3" transform="translate(322.577949, 197.092519) scale(-1, -1) rotate(18.000000) translate(-322.577949, -197.092519) translate(16.577949, -47.407481)">
            <mask id="mask-2" fill="white">
                <use xlink:href="#path-1"></use>
            </mask>
            <use id="Mask" fill="#8F8EAA" opacity="0.348901721" transform="translate(306.152406, 244.224967) scale(-1, -1) rotate(-353.000000) translate(-306.152406, -244.224967) " xlink:href="#path-1"></use>
        </g>
    </g>
</svg>