<?xml version="1.0" standalone="no"?><!DOCTYPE svg PUBLIC "-//W3C//DTD SVG 1.1//EN" "http://www.w3.org/Graphics/SVG/1.1/DTD/svg11.dtd"><svg t="1585231898943" class="icon" viewBox="0 0 1024 1024" version="1.1" xmlns="http://www.w3.org/2000/svg" p-id="3033" xmlns:xlink="http://www.w3.org/1999/xlink" width="128" height="128"><defs><style type="text/css"></style></defs><path d="M576.402898 882.66635H442.245397c-156.902245 0-284.613375-127.832759-284.613374-284.978264V463.652215C157.632023 387.998575 187.309657 316.601972 241.19159 262.720038c53.881934-53.881934 125.278537-83.559568 201.053807-83.559568h134.765649c75.8969 0 147.415132 29.799264 201.297067 83.802827 53.638674 53.881934 83.073049 125.156907 82.829789 200.688918v134.52239c-0.12163 156.902245-127.71113 284.491745-284.735004 284.491745zM442.245397 220.51455c-134.157501 0-243.259294 108.980164-243.259294 243.016036v134.035871c0 134.279131 109.101794 243.624183 243.259294 243.624183h134.157501c134.157501 0 243.259294-108.980164 243.259295-243.016035V463.652215c0.243259-64.585343-24.812448-125.400166-70.666825-171.376173-45.976007-46.219266-107.155719-71.639862-171.984322-71.639862H442.245397z" fill="#8acea1" p-id="3034"></path><path d="M606.323791 376.930277c-58.017342 0-108.736905 44.638081-114.818387 102.047274v1.094667c-21.528448-19.339114-49.138377-30.407412-78.451122-30.407412h-90.005939v43.543414c6.568001 56.801045 57.409193 102.047274 115.913054 102.047274h41.35408v-37.461932h-43.178525c-16.055113 0-37.583561-10.46015-53.030526-25.907115-13.257632-13.257632-21.528448-28.704597-23.231263-44.63808H413.90569c36.975413 0 77.234826 29.191115 77.234826 77.234826v293.492339h37.58356l0.608149-366.348498c0-47.435562 39.772895-77.234826 77.234826-77.234826h51.935859c-1.702815 16.055113-9.973631 31.502079-23.231263 44.638081-16.055113 15.446965-37.583561 25.420596-53.517044 25.907114h-42.570377v37.461932h41.35408c58.017342 0 108.736905-44.638081 115.913054-102.655422v-42.448747h-90.492458v-0.364889h0.364889z" fill="#8acea1" p-id="3035"></path></svg>